<?xml version="1.0" encoding="utf-8"?><svg xmlns="http://www.w3.org/2000/svg" xmlns:xlink="http://www.w3.org/1999/xlink" width="1536" height="747" preserveAspectRatio="xMidYMid" viewBox="0 0 1536 747" style="z-index:1;margin-right:-1.6px;display:block;background-color:rgb(0, 0, 0);animation-play-state:paused" ><g transform="translate(768,373.5) scale(1,1) translate(-768,-373.5)" style="transform:matrix(1, 0, 0, 1, 0, 0);animation-play-state:paused" ><path d="M7.68 -9.413547112391825L7.68 0Z" stroke-width="15.36" stroke-linecap="round" stroke-linejoin="round" stroke="#191d3a" transform="matrix(1,0,0,1,0,292.970947265625)" opacity="1" style="transform:matrix(1, 0, 0, 1, 0, 292.971);animation-play-state:paused" ></path>
<path d="M7.68 -75.58389415768761L7.68 0Z" stroke-width="15.36" stroke-linecap="round" stroke-linejoin="round" stroke="#689cc5" transform="matrix(1,0,0,1,0,275.65252685546875)" opacity="1" style="transform:matrix(1, 0, 0, 1, 0, 275.653);animation-play-state:paused" ></path>
<path d="M7.68 -64.13385205218219L7.68 0Z" stroke-width="15.36" stroke-linecap="round" stroke-linejoin="round" stroke="#191d3a" transform="matrix(1,0,0,1,0,132.25143432617188)" opacity="1" style="transform:matrix(1, 0, 0, 1, 0, 132.251);animation-play-state:paused" ></path>
<path d="M38.4 -91.7201248443962L38.4 0Z" stroke-width="15.36" stroke-linecap="round" stroke-linejoin="round" stroke="#191d3a" transform="matrix(1,0,0,1,0,407.9705505371094)" opacity="0.862536" style="transform:matrix(1, 0, 0, 1, 0, 407.971);opacity:0.862536;animation-play-state:paused" ></path>
<path d="M38.4 -78.35402799696021L38.4 0Z" stroke-width="15.36" stroke-linecap="round" stroke-linejoin="round" stroke="#b3b7e2" transform="matrix(1,0,0,1,0,275.2759704589844)" opacity="1" style="transform:matrix(1, 0, 0, 1, 0, 275.276);animation-play-state:paused" ></path>
<path d="M38.4 -54.62529368365358L38.4 0Z" stroke-width="15.36" stroke-linecap="round" stroke-linejoin="round" stroke="#d9dbee" transform="matrix(1,0,0,1,0,332.778564453125)" opacity="1" style="transform:matrix(1, 0, 0, 1, 0, 332.779);animation-play-state:paused" ></path>
<path d="M69.12 -53.7175837266368L69.12 0Z" stroke-width="15.36" stroke-linecap="round" stroke-linejoin="round" stroke="#3b4368" transform="matrix(1,0,0,1,0,6.739898681640625)" opacity="1" style="transform:matrix(1, 0, 0, 1, 0, 6.7399);animation-play-state:paused" ></path>
<path d="M69.12 -54.4096967464975L69.12 0Z" stroke-width="15.36" stroke-linecap="round" stroke-linejoin="round" stroke="#b3b7e2" transform="matrix(1,0,0,1,0,446.1634826660156)" opacity="0.475199" style="transform:matrix(1, 0, 0, 1, 0, 446.163);opacity:0.475199;animation-play-state:paused" ></path>
<path d="M69.12 -15.602924350670946L69.12 0Z" stroke-width="15.36" stroke-linecap="round" stroke-linejoin="round" stroke="#191d3a" transform="matrix(1,0,0,1,0,15.127530097961426)" opacity="1" style="transform:matrix(1, 0, 0, 1, 0, 15.1275);animation-play-state:paused" ></path>
<path d="M99.84 -75.46809493277851L99.84 0Z" stroke-width="15.36" stroke-linecap="round" stroke-linejoin="round" stroke="#3b4368" transform="matrix(1,0,0,1,0,338.9579162597656)" opacity="1" style="transform:matrix(1, 0, 0, 1, 0, 338.958);animation-play-state:paused" ></path>
<path d="M99.84 -56.224630193742996L99.84 0Z" stroke-width="15.36" stroke-linecap="round" stroke-linejoin="round" stroke="#b3b7e2" transform="matrix(1,0,0,1,0,76.18274688720703)" opacity="1" style="transform:matrix(1, 0, 0, 1, 0, 76.1827);animation-play-state:paused" ></path>
<path d="M99.84 -34.36799738784521L99.84 0Z" stroke-width="15.36" stroke-linecap="round" stroke-linejoin="round" stroke="#93dbe9" transform="matrix(1,0,0,1,0,450.8274841308594)" opacity="0.427898" style="transform:matrix(1, 0, 0, 1, 0, 450.827);opacity:0.427898;animation-play-state:paused" ></path>
<path d="M130.56 -35.30644268868309L130.56 0Z" stroke-width="15.36" stroke-linecap="round" stroke-linejoin="round" stroke="#689cc5" transform="matrix(1,0,0,1,0,35.05891418457031)" opacity="1" style="transform:matrix(1, 0, 0, 1, 0, 35.0589);animation-play-state:paused" ></path>
<path d="M130.56 -59.9101207151607L130.56 0Z" stroke-width="15.36" stroke-linecap="round" stroke-linejoin="round" stroke="#3b4368" transform="matrix(1,0,0,1,0,132.84011840820312)" opacity="1" style="transform:matrix(1, 0, 0, 1, 0, 132.84);animation-play-state:paused" ></path>
<path d="M130.56 -46.16720331081979L130.56 0Z" stroke-width="15.36" stroke-linecap="round" stroke-linejoin="round" stroke="#3b4368" transform="matrix(1,0,0,1,0,460.17620849609375)" opacity="0.333088" style="transform:matrix(1, 0, 0, 1, 0, 460.176);opacity:0.333088;animation-play-state:paused" ></path>
<path d="M161.28 -35.0634898698263L161.28 0Z" stroke-width="15.36" stroke-linecap="round" stroke-linejoin="round" stroke="#3b4368" transform="matrix(1,0,0,1,0,330.42791748046875)" opacity="1" style="transform:matrix(1, 0, 0, 1, 0, 330.428);animation-play-state:paused" ></path>
<path d="M161.28 -69.65266936161788L161.28 0Z" stroke-width="15.36" stroke-linecap="round" stroke-linejoin="round" stroke="#689cc5" transform="matrix(1,0,0,1,0,433.9940490722656)" opacity="0.598616" style="transform:matrix(1, 0, 0, 1, 0, 433.994);opacity:0.598616;animation-play-state:paused" ></path>
<path d="M161.28 -11.305636428100115L161.28 0Z" stroke-width="15.36" stroke-linecap="round" stroke-linejoin="round" stroke="#689cc5" transform="matrix(1,0,0,1,0,46.71971893310547)" opacity="1" style="transform:matrix(1, 0, 0, 1, 0, 46.7197);animation-play-state:paused" ></path>
<path d="M192 -66.91260560032606L192 0Z" stroke-width="15.36" stroke-linecap="round" stroke-linejoin="round" stroke="#93dbe9" transform="matrix(1,0,0,1,0,133.82534790039062)" opacity="1" style="transform:matrix(1, 0, 0, 1, 0, 133.825);animation-play-state:paused" ></path>
<path d="M192 -79.02269184343822L192 0Z" stroke-width="15.36" stroke-linecap="round" stroke-linejoin="round" stroke="#93dbe9" transform="matrix(1,0,0,1,0,125.71883392333984)" opacity="1" style="transform:matrix(1, 0, 0, 1, 0, 125.719);animation-play-state:paused" ></path>
<path d="M192 -79.95001039768977L192 0Z" stroke-width="15.36" stroke-linecap="round" stroke-linejoin="round" stroke="#689cc5" transform="matrix(1,0,0,1,0,336.5521240234375)" opacity="1" style="transform:matrix(1, 0, 0, 1, 0, 336.552);animation-play-state:paused" ></path>
<path d="M222.72 -60.785722629767406L222.72 0Z" stroke-width="15.36" stroke-linecap="round" stroke-linejoin="round" stroke="#93dbe9" transform="matrix(1,0,0,1,0,108.07798767089844)" opacity="1" style="transform:matrix(1, 0, 0, 1, 0, 108.078);animation-play-state:paused" ></path>
<path d="M222.72 -24.85843191438471L222.72 0Z" stroke-width="15.36" stroke-linecap="round" stroke-linejoin="round" stroke="#5e6fa3" transform="matrix(1,0,0,1,0,182.57489013671875)" opacity="1" style="transform:matrix(1, 0, 0, 1, 0, 182.575);animation-play-state:paused" ></path>
<path d="M222.72 -74.2909389608867L222.72 0Z" stroke-width="15.36" stroke-linecap="round" stroke-linejoin="round" stroke="#93dbe9" transform="matrix(1,0,0,1,0,159.92771911621094)" opacity="1" style="transform:matrix(1, 0, 0, 1, 0, 159.928);animation-play-state:paused" ></path>
<path d="M253.44 -45.548974982316395L253.44 0Z" stroke-width="15.36" stroke-linecap="round" stroke-linejoin="round" stroke="#5e6fa3" transform="matrix(1,0,0,1,0,85.61573791503906)" opacity="1" style="transform:matrix(1, 0, 0, 1, 0, 85.6157);animation-play-state:paused" ></path>
<path d="M253.44 -76.69184269756079L253.44 0Z" stroke-width="15.36" stroke-linecap="round" stroke-linejoin="round" stroke="#b3b7e2" transform="matrix(1,0,0,1,0,177.23138427734375)" opacity="1" style="transform:matrix(1, 0, 0, 1, 0, 177.231);animation-play-state:paused" ></path>
<path d="M253.44 -59.704523780415L253.44 0Z" stroke-width="15.36" stroke-linecap="round" stroke-linejoin="round" stroke="#689cc5" transform="matrix(1,0,0,1,0,315.30072021484375)" opacity="1" style="transform:matrix(1, 0, 0, 1, 0, 315.301);animation-play-state:paused" ></path>
<path d="M284.16 -21.109582232747925L284.16 0Z" stroke-width="15.36" stroke-linecap="round" stroke-linejoin="round" stroke="#5e6fa3" transform="matrix(1,0,0,1,0,199.29965209960938)" opacity="1" style="transform:matrix(1, 0, 0, 1, 0, 199.3);animation-play-state:paused" ></path>
<path d="M284.16 -102.4802153739729L284.16 0Z" stroke-width="15.36" stroke-linecap="round" stroke-linejoin="round" stroke="#3b4368" transform="matrix(1,0,0,1,0,91.51521301269531)" opacity="1" style="transform:matrix(1, 0, 0, 1, 0, 91.5152);animation-play-state:paused" ></path>
<path d="M284.16 -87.7404025117321L284.16 0Z" stroke-width="15.36" stroke-linecap="round" stroke-linejoin="round" stroke="#d9dbee" transform="matrix(1,0,0,1,0,481.12353515625)" opacity="0.120649" style="transform:matrix(1, 0, 0, 1, 0, 481.124);opacity:0.120649;animation-play-state:paused" ></path>
<path d="M314.88 -17.64600922151294L314.88 0Z" stroke-width="15.36" stroke-linecap="round" stroke-linejoin="round" stroke="#191d3a" transform="matrix(1,0,0,1,0,89.4806137084961)" opacity="1" style="transform:matrix(1, 0, 0, 1, 0, 89.4806);animation-play-state:paused" ></path>
<path d="M314.88 -60.42297213880738L314.88 0Z" stroke-width="15.36" stroke-linecap="round" stroke-linejoin="round" stroke="#689cc5" transform="matrix(1,0,0,1,0,186.40464782714844)" opacity="1" style="transform:matrix(1, 0, 0, 1, 0, 186.405);animation-play-state:paused" ></path>
<path d="M314.88 -30.874202708993835L314.88 0Z" stroke-width="15.36" stroke-linecap="round" stroke-linejoin="round" stroke="#5e6fa3" transform="matrix(1,0,0,1,0,441.2886962890625)" opacity="0.524637" style="transform:matrix(1, 0, 0, 1, 0, 441.289);opacity:0.524637;animation-play-state:paused" ></path>
<path d="M345.59999999999997 -98.30207849091676L345.59999999999997 0Z" stroke-width="15.36" stroke-linecap="round" stroke-linejoin="round" stroke="#d9dbee" transform="matrix(1,0,0,1,0,312.84515380859375)" opacity="1" style="transform:matrix(1, 0, 0, 1, 0, 312.845);animation-play-state:paused" ></path>
<path d="M345.59999999999997 -3.7259744663751917L345.59999999999997 0Z" stroke-width="15.36" stroke-linecap="round" stroke-linejoin="round" stroke="#b3b7e2" transform="matrix(1,0,0,1,0,240.04937744140625)" opacity="1" style="transform:matrix(1, 0, 0, 1, 0, 240.049);animation-play-state:paused" ></path>
<path d="M345.59999999999997 -55.729665187202045L345.59999999999997 0Z" stroke-width="15.36" stroke-linecap="round" stroke-linejoin="round" stroke="#5e6fa3" transform="matrix(1,0,0,1,0,65.05619049072266)" opacity="1" style="transform:matrix(1, 0, 0, 1, 0, 65.0562);animation-play-state:paused" ></path>
<path d="M376.32 -62.08551226056443L376.32 0Z" stroke-width="15.36" stroke-linecap="round" stroke-linejoin="round" stroke="#689cc5" transform="matrix(1,0,0,1,0,207.86036682128906)" opacity="1" style="transform:matrix(1, 0, 0, 1, 0, 207.86);animation-play-state:paused" ></path>
<path d="M376.32 -88.54628870690067L376.32 0Z" stroke-width="15.36" stroke-linecap="round" stroke-linejoin="round" stroke="#93dbe9" transform="matrix(1,0,0,1,0,175.63314819335938)" opacity="1" style="transform:matrix(1, 0, 0, 1, 0, 175.633);animation-play-state:paused" ></path>
<path d="M376.32 -116.30080129759881L376.32 0Z" stroke-width="15.36" stroke-linecap="round" stroke-linejoin="round" stroke="#5e6fa3" transform="matrix(1,0,0,1,0,341.5783996582031)" opacity="1" style="transform:matrix(1, 0, 0, 1, 0, 341.578);animation-play-state:paused" ></path>
<path d="M407.04 -86.86899207909664L407.04 0Z" stroke-width="15.36" stroke-linecap="round" stroke-linejoin="round" stroke="#d9dbee" transform="matrix(1,0,0,1,0,132.6671600341797)" opacity="1" style="transform:matrix(1, 0, 0, 1, 0, 132.667);animation-play-state:paused" ></path>
<path d="M407.04 -27.258152729169524L407.04 0Z" stroke-width="15.36" stroke-linecap="round" stroke-linejoin="round" stroke="#191d3a" transform="matrix(1,0,0,1,0,232.19114685058594)" opacity="1" style="transform:matrix(1, 0, 0, 1, 0, 232.191);animation-play-state:paused" ></path>
<path d="M407.04 -49.42971023566497L407.04 0Z" stroke-width="15.36" stroke-linecap="round" stroke-linejoin="round" stroke="#d9dbee" transform="matrix(1,0,0,1,0,480.003173828125)" opacity="0.132011" style="transform:matrix(1, 0, 0, 1, 0, 480.003);opacity:0.132011;animation-play-state:paused" ></path>
<path d="M437.76 -41.48497631128703L437.76 0Z" stroke-width="15.36" stroke-linecap="round" stroke-linejoin="round" stroke="#b3b7e2" transform="matrix(1,0,0,1,0,16.45282745361328)" opacity="1" style="transform:matrix(1, 0, 0, 1, 0, 16.4528);animation-play-state:paused" ></path>
<path d="M437.76 -8.935541543643922L437.76 0Z" stroke-width="15.36" stroke-linecap="round" stroke-linejoin="round" stroke="#3b4368" transform="matrix(1,0,0,1,0,122.80448913574219)" opacity="1" style="transform:matrix(1, 0, 0, 1, 0, 122.804);animation-play-state:paused" ></path>
<path d="M437.76 -90.6114875829735L437.76 0Z" stroke-width="15.36" stroke-linecap="round" stroke-linejoin="round" stroke="#191d3a" transform="matrix(1,0,0,1,0,189.30503845214844)" opacity="1" style="transform:matrix(1, 0, 0, 1, 0, 189.305);animation-play-state:paused" ></path>
<path d="M468.47999999999996 -34.239075523986685L468.47999999999996 0Z" stroke-width="15.36" stroke-linecap="round" stroke-linejoin="round" stroke="#b3b7e2" transform="matrix(1,0,0,1,0,184.93966674804688)" opacity="1" style="transform:matrix(1, 0, 0, 1, 0, 184.94);animation-play-state:paused" ></path>
<path d="M468.47999999999996 -11.433800144368433L468.47999999999996 0Z" stroke-width="15.36" stroke-linecap="round" stroke-linejoin="round" stroke="#5e6fa3" transform="matrix(1,0,0,1,0,315.5725402832031)" opacity="1" style="transform:matrix(1, 0, 0, 1, 0, 315.573);animation-play-state:paused" ></path>
<path d="M468.47999999999996 -47.90320164904915L468.47999999999996 0Z" stroke-width="15.36" stroke-linecap="round" stroke-linejoin="round" stroke="#d9dbee" transform="matrix(1,0,0,1,0,329.46319580078125)" opacity="1" style="transform:matrix(1, 0, 0, 1, 0, 329.463);animation-play-state:paused" ></path>
<path d="M499.2 -25.263424431174826L499.2 0Z" stroke-width="15.36" stroke-linecap="round" stroke-linejoin="round" stroke="#191d3a" transform="matrix(1,0,0,1,0,477.76092529296875)" opacity="0.154751" style="transform:matrix(1, 0, 0, 1, 0, 477.761);opacity:0.154751;animation-play-state:paused" ></path>
<path d="M499.2 -22.008919429626985L499.2 0Z" stroke-width="15.36" stroke-linecap="round" stroke-linejoin="round" stroke="#93dbe9" transform="matrix(1,0,0,1,0,197.86892700195312)" opacity="1" style="transform:matrix(1, 0, 0, 1, 0, 197.869);animation-play-state:paused" ></path>
<path d="M499.2 -39.48945941323382L499.2 0Z" stroke-width="15.36" stroke-linecap="round" stroke-linejoin="round" stroke="#689cc5" transform="matrix(1,0,0,1,0,236.03390502929688)" opacity="1" style="transform:matrix(1, 0, 0, 1, 0, 236.034);animation-play-state:paused" ></path>
<path d="M529.92 -24.707264143260545L529.92 0Z" stroke-width="15.36" stroke-linecap="round" stroke-linejoin="round" stroke="#b3b7e2" transform="matrix(1,0,0,1,0,383.05279541015625)" opacity="1" style="transform:matrix(1, 0, 0, 1, 0, 383.053);animation-play-state:paused" ></path>
<path d="M529.92 -74.12587483225798L529.92 0Z" stroke-width="15.36" stroke-linecap="round" stroke-linejoin="round" stroke="#5e6fa3" transform="matrix(1,0,0,1,0,93.49336242675781)" opacity="1" style="transform:matrix(1, 0, 0, 1, 0, 93.4934);animation-play-state:paused" ></path>
<path d="M529.92 -93.75892385021871L529.92 0Z" stroke-width="15.36" stroke-linecap="round" stroke-linejoin="round" stroke="#191d3a" transform="matrix(1,0,0,1,0,386.88037109375)" opacity="1" style="transform:matrix(1, 0, 0, 1, 0, 386.88);animation-play-state:paused" ></path>
<path d="M560.64 -37.773688696899626L560.64 0Z" stroke-width="15.36" stroke-linecap="round" stroke-linejoin="round" stroke="#191d3a" transform="matrix(1,0,0,1,0,365.1395263671875)" opacity="1" style="transform:matrix(1, 0, 0, 1, 0, 365.14);animation-play-state:paused" ></path>
<path d="M560.64 -27.69226096836792L560.64 0Z" stroke-width="15.36" stroke-linecap="round" stroke-linejoin="round" stroke="#d9dbee" transform="matrix(1,0,0,1,0,349.36383056640625)" opacity="1" style="transform:matrix(1, 0, 0, 1, 0, 349.364);animation-play-state:paused" ></path>
<path d="M560.64 -14.741285059018992L560.64 0Z" stroke-width="15.36" stroke-linecap="round" stroke-linejoin="round" stroke="#d9dbee" transform="matrix(1,0,0,1,0,486.3298645019531)" opacity="0.0678483" style="transform:matrix(1, 0, 0, 1, 0, 486.33);opacity:0.0678483;animation-play-state:paused" ></path>
<path d="M591.3599999999999 -76.33509387030426L591.3599999999999 0Z" stroke-width="15.36" stroke-linecap="round" stroke-linejoin="round" stroke="#93dbe9" transform="matrix(1,0,0,1,0,460.173828125)" opacity="0.333112" style="transform:matrix(1, 0, 0, 1, 0, 460.174);opacity:0.333112;animation-play-state:paused" ></path>
<path d="M591.3599999999999 -9.826562720485526L591.3599999999999 0Z" stroke-width="15.36" stroke-linecap="round" stroke-linejoin="round" stroke="#5e6fa3" transform="matrix(1,0,0,1,0,384.0832214355469)" opacity="1" style="transform:matrix(1, 0, 0, 1, 0, 384.083);animation-play-state:paused" ></path>
<path d="M591.3599999999999 -27.147846462994494L591.3599999999999 0Z" stroke-width="15.36" stroke-linecap="round" stroke-linejoin="round" stroke="#191d3a" transform="matrix(1,0,0,1,0,80.97657775878906)" opacity="1" style="transform:matrix(1, 0, 0, 1, 0, 80.9766);animation-play-state:paused" ></path>
<path d="M622.0799999999999 -13.302364320097695L622.0799999999999 0Z" stroke-width="15.36" stroke-linecap="round" stroke-linejoin="round" stroke="#b3b7e2" transform="matrix(1,0,0,1,0,190.1637420654297)" opacity="1" style="transform:matrix(1, 0, 0, 1, 0, 190.164);animation-play-state:paused" ></path>
<path d="M622.0799999999999 -44.8882564067826L622.0799999999999 0Z" stroke-width="15.36" stroke-linecap="round" stroke-linejoin="round" stroke="#5e6fa3" transform="matrix(1,0,0,1,0,126.63593292236328)" opacity="1" style="transform:matrix(1, 0, 0, 1, 0, 126.636);animation-play-state:paused" ></path>
<path d="M622.0799999999999 -87.17080736599019L622.0799999999999 0Z" stroke-width="15.36" stroke-linecap="round" stroke-linejoin="round" stroke="#5e6fa3" transform="matrix(1,0,0,1,0,381.8787536621094)" opacity="1" style="transform:matrix(1, 0, 0, 1, 0, 381.879);animation-play-state:paused" ></path>
<path d="M652.8 -58.882108451698514L652.8 0Z" stroke-width="15.36" stroke-linecap="round" stroke-linejoin="round" stroke="#d9dbee" transform="matrix(1,0,0,1,0,326.2186584472656)" opacity="1" style="transform:matrix(1, 0, 0, 1, 0, 326.219);animation-play-state:paused" ></path>
<path d="M652.8 -65.77276217797225L652.8 0Z" stroke-width="15.36" stroke-linecap="round" stroke-linejoin="round" stroke="#689cc5" transform="matrix(1,0,0,1,0,434.611572265625)" opacity="0.592353" style="transform:matrix(1, 0, 0, 1, 0, 434.612);opacity:0.592353;animation-play-state:paused" ></path>
<path d="M652.8 -59.78866445880885L652.8 0Z" stroke-width="15.36" stroke-linecap="round" stroke-linejoin="round" stroke="#3b4368" transform="matrix(1,0,0,1,0,75.87581634521484)" opacity="1" style="transform:matrix(1, 0, 0, 1, 0, 75.8758);animation-play-state:paused" ></path>
<path d="M683.5199999999999 -20.14726090113254L683.5199999999999 0Z" stroke-width="15.36" stroke-linecap="round" stroke-linejoin="round" stroke="#191d3a" transform="matrix(1,0,0,1,0,9.511804580688477)" opacity="1" style="transform:matrix(1, 0, 0, 1, 0, 9.5118);animation-play-state:paused" ></path>
<path d="M683.5199999999999 -97.95100151438965L683.5199999999999 0Z" stroke-width="15.36" stroke-linecap="round" stroke-linejoin="round" stroke="#5e6fa3" transform="matrix(1,0,0,1,0,187.7383270263672)" opacity="1" style="transform:matrix(1, 0, 0, 1, 0, 187.738);animation-play-state:paused" ></path>
<path d="M683.5199999999999 -26.308384992596984L683.5199999999999 0Z" stroke-width="15.36" stroke-linecap="round" stroke-linejoin="round" stroke="#3b4368" transform="matrix(1,0,0,1,0,158.35289001464844)" opacity="1" style="transform:matrix(1, 0, 0, 1, 0, 158.353);animation-play-state:paused" ></path>
<path d="M714.2399999999999 -28.010152790055145L714.2399999999999 0Z" stroke-width="15.36" stroke-linecap="round" stroke-linejoin="round" stroke="#191d3a" transform="matrix(1,0,0,1,0,405.9776916503906)" opacity="0.882746" style="transform:matrix(1, 0, 0, 1, 0, 405.978);opacity:0.882746;animation-play-state:paused" ></path>
<path d="M714.2399999999999 -47.545915019130916L714.2399999999999 0Z" stroke-width="15.36" stroke-linecap="round" stroke-linejoin="round" stroke="#b3b7e2" transform="matrix(1,0,0,1,0,216.1363525390625)" opacity="1" style="transform:matrix(1, 0, 0, 1, 0, 216.136);animation-play-state:paused" ></path>
<path d="M714.2399999999999 -68.19605386769399L714.2399999999999 0Z" stroke-width="15.36" stroke-linecap="round" stroke-linejoin="round" stroke="#d9dbee" transform="matrix(1,0,0,1,0,347.6334533691406)" opacity="1" style="transform:matrix(1, 0, 0, 1, 0, 347.633);animation-play-state:paused" ></path>
<path d="M744.9599999999999 -14.954366211637534L744.9599999999999 0Z" stroke-width="15.36" stroke-linecap="round" stroke-linejoin="round" stroke="#d9dbee" transform="matrix(1,0,0,1,0,225.7758331298828)" opacity="1" style="transform:matrix(1, 0, 0, 1, 0, 225.776);animation-play-state:paused" ></path>
<path d="M744.9599999999999 -63.3420315200201L744.9599999999999 0Z" stroke-width="15.36" stroke-linecap="round" stroke-linejoin="round" stroke="#3b4368" transform="matrix(1,0,0,1,0,296.3545227050781)" opacity="1" style="transform:matrix(1, 0, 0, 1, 0, 296.355);animation-play-state:paused" ></path>
<path d="M744.9599999999999 -45.16344966089309L744.9599999999999 0Z" stroke-width="15.36" stroke-linecap="round" stroke-linejoin="round" stroke="#5e6fa3" transform="matrix(1,0,0,1,0,379.2724609375)" opacity="1" style="transform:matrix(1, 0, 0, 1, 0, 379.272);animation-play-state:paused" ></path>
<path d="M775.68 -54.721947327074304L775.68 0Z" stroke-width="15.36" stroke-linecap="round" stroke-linejoin="round" stroke="#b3b7e2" transform="matrix(1,0,0,1,0,488.22772216796875)" opacity="0.048601" style="transform:matrix(1, 0, 0, 1, 0, 488.228);opacity:0.048601;animation-play-state:paused" ></path>
<path d="M775.68 -70.52706360335287L775.68 0Z" stroke-width="15.36" stroke-linecap="round" stroke-linejoin="round" stroke="#d9dbee" transform="matrix(1,0,0,1,0,4.075549602508545)" opacity="1" style="transform:matrix(1, 0, 0, 1, 0, 4.07555);animation-play-state:paused" ></path>
<path d="M775.68 -12.188159707231534L775.68 0Z" stroke-width="15.36" stroke-linecap="round" stroke-linejoin="round" stroke="#3b4368" transform="matrix(1,0,0,1,0,375.8440856933594)" opacity="1" style="transform:matrix(1, 0, 0, 1, 0, 375.844);animation-play-state:paused" ></path>
<path d="M806.4 -52.042170588109L806.4 0Z" stroke-width="15.36" stroke-linecap="round" stroke-linejoin="round" stroke="#689cc5" transform="matrix(1,0,0,1,0,221.48338317871094)" opacity="1" style="transform:matrix(1, 0, 0, 1, 0, 221.483);animation-play-state:paused" ></path>
<path d="M806.4 -66.45384013719377L806.4 0Z" stroke-width="15.36" stroke-linecap="round" stroke-linejoin="round" stroke="#191d3a" transform="matrix(1,0,0,1,0,425.5753173828125)" opacity="0.683995" style="transform:matrix(1, 0, 0, 1, 0, 425.575);opacity:0.683995;animation-play-state:paused" ></path>
<path d="M806.4 -52.87706852040719L806.4 0Z" stroke-width="15.36" stroke-linecap="round" stroke-linejoin="round" stroke="#689cc5" transform="matrix(1,0,0,1,0,64.28213500976562)" opacity="1" style="transform:matrix(1, 0, 0, 1, 0, 64.2821);animation-play-state:paused" ></path>
<path d="M837.1199999999999 -66.53571213258692L837.1199999999999 0Z" stroke-width="15.36" stroke-linecap="round" stroke-linejoin="round" stroke="#3b4368" transform="matrix(1,0,0,1,0,308.8111572265625)" opacity="1" style="transform:matrix(1, 0, 0, 1, 0, 308.811);animation-play-state:paused" ></path>
<path d="M837.1199999999999 -74.88521432432935L837.1199999999999 0Z" stroke-width="15.36" stroke-linecap="round" stroke-linejoin="round" stroke="#93dbe9" transform="matrix(1,0,0,1,0,409.66949462890625)" opacity="0.845305" style="transform:matrix(1, 0, 0, 1, 0, 409.669);opacity:0.845305;animation-play-state:paused" ></path>
<path d="M837.1199999999999 -41.76195799992638L837.1199999999999 0Z" stroke-width="15.36" stroke-linecap="round" stroke-linejoin="round" stroke="#5e6fa3" transform="matrix(1,0,0,1,0,316.9547119140625)" opacity="1" style="transform:matrix(1, 0, 0, 1, 0, 316.955);animation-play-state:paused" ></path>
<path d="M867.8399999999999 -9.388085666556435L867.8399999999999 0Z" stroke-width="15.36" stroke-linecap="round" stroke-linejoin="round" stroke="#689cc5" transform="matrix(1,0,0,1,0,142.885986328125)" opacity="1" style="transform:matrix(1, 0, 0, 1, 0, 142.886);animation-play-state:paused" ></path>
<path d="M867.8399999999999 -89.36612416629214L867.8399999999999 0Z" stroke-width="15.36" stroke-linecap="round" stroke-linejoin="round" stroke="#3b4368" transform="matrix(1,0,0,1,0,14.727991104125977)" opacity="1" style="transform:matrix(1, 0, 0, 1, 0, 14.728);animation-play-state:paused" ></path>
<path d="M867.8399999999999 -91.27227793177371L867.8399999999999 0Z" stroke-width="15.36" stroke-linecap="round" stroke-linejoin="round" stroke="#3b4368" transform="matrix(1,0,0,1,0,94.22817993164062)" opacity="1" style="transform:matrix(1, 0, 0, 1, 0, 94.2282);animation-play-state:paused" ></path>
<path d="M898.56 -72.19039758449435L898.56 0Z" stroke-width="15.36" stroke-linecap="round" stroke-linejoin="round" stroke="#689cc5" transform="matrix(1,0,0,1,0,178.80760192871094)" opacity="1" style="transform:matrix(1, 0, 0, 1, 0, 178.808);animation-play-state:paused" ></path>
<path d="M898.56 -1.9333491394354496L898.56 0Z" stroke-width="15.36" stroke-linecap="round" stroke-linejoin="round" stroke="#689cc5" transform="matrix(1,0,0,1,0,492.326416015625)" opacity="0.00703394" style="transform:matrix(1, 0, 0, 1, 0, 492.326);opacity:0.00703394;animation-play-state:paused" ></path>
<path d="M898.56 -37.40213666428099L898.56 0Z" stroke-width="15.36" stroke-linecap="round" stroke-linejoin="round" stroke="#191d3a" transform="matrix(1,0,0,1,0,467.5104675292969)" opacity="0.258707" style="transform:matrix(1, 0, 0, 1, 0, 467.51);opacity:0.258707;animation-play-state:paused" ></path>
<path d="M929.2799999999999 -52.60344547598925L929.2799999999999 0Z" stroke-width="15.36" stroke-linecap="round" stroke-linejoin="round" stroke="#d9dbee" transform="matrix(1,0,0,1,0,427.0433349609375)" opacity="0.669107" style="transform:matrix(1, 0, 0, 1, 0, 427.043);opacity:0.669107;animation-play-state:paused" ></path>
<path d="M929.2799999999999 -66.38149279202116L929.2799999999999 0Z" stroke-width="15.36" stroke-linecap="round" stroke-linejoin="round" stroke="#d9dbee" transform="matrix(1,0,0,1,0,306.0871887207031)" opacity="1" style="transform:matrix(1, 0, 0, 1, 0, 306.087);animation-play-state:paused" ></path>
<path d="M929.2799999999999 -6.337527237301401L929.2799999999999 0Z" stroke-width="15.36" stroke-linecap="round" stroke-linejoin="round" stroke="#5e6fa3" transform="matrix(1,0,0,1,0,367.5172424316406)" opacity="1" style="transform:matrix(1, 0, 0, 1, 0, 367.517);animation-play-state:paused" ></path>
<path d="M959.9999999999999 -108.78243800144082L959.9999999999999 0Z" stroke-width="15.36" stroke-linecap="round" stroke-linejoin="round" stroke="#3b4368" transform="matrix(1,0,0,1,0,128.30538940429688)" opacity="1" style="transform:matrix(1, 0, 0, 1, 0, 128.305);animation-play-state:paused" ></path>
<path d="M959.9999999999999 -10.946863561348437L959.9999999999999 0Z" stroke-width="15.36" stroke-linecap="round" stroke-linejoin="round" stroke="#689cc5" transform="matrix(1,0,0,1,0,406.84454345703125)" opacity="0.873955" style="transform:matrix(1, 0, 0, 1, 0, 406.845);opacity:0.873955;animation-play-state:paused" ></path>
<path d="M959.9999999999999 -70.11088367046614L959.9999999999999 0Z" stroke-width="15.36" stroke-linecap="round" stroke-linejoin="round" stroke="#3b4368" transform="matrix(1,0,0,1,0,476.9182434082031)" opacity="0.163297" style="transform:matrix(1, 0, 0, 1, 0, 476.918);opacity:0.163297;animation-play-state:paused" ></path>
<path d="M990.7199999999999 -83.5969778233557L990.7199999999999 0Z" stroke-width="15.36" stroke-linecap="round" stroke-linejoin="round" stroke="#689cc5" transform="matrix(1,0,0,1,0,182.50204467773438)" opacity="1" style="transform:matrix(1, 0, 0, 1, 0, 182.502);animation-play-state:paused" ></path>
<path d="M990.7199999999999 -20.31192465370259L990.7199999999999 0Z" stroke-width="15.36" stroke-linecap="round" stroke-linejoin="round" stroke="#689cc5" transform="matrix(1,0,0,1,0,492.49737548828125)" opacity="0.00530005" style="transform:matrix(1, 0, 0, 1, 0, 492.497);opacity:0.00530005;animation-play-state:paused" ></path>
<path d="M990.7199999999999 -28.985509367896157L990.7199999999999 0Z" stroke-width="15.36" stroke-linecap="round" stroke-linejoin="round" stroke="#3b4368" transform="matrix(1,0,0,1,0,324.7025146484375)" opacity="1" style="transform:matrix(1, 0, 0, 1, 0, 324.703);animation-play-state:paused" ></path>
<path d="M1021.4399999999999 -70.42704266219516L1021.4399999999999 0Z" stroke-width="15.36" stroke-linecap="round" stroke-linejoin="round" stroke="#b3b7e2" transform="matrix(1,0,0,1,0,440.3241271972656)" opacity="0.534419" style="transform:matrix(1, 0, 0, 1, 0, 440.324);opacity:0.534419;animation-play-state:paused" ></path>
<path d="M1021.4399999999999 -70.26741193273847L1021.4399999999999 0Z" stroke-width="15.36" stroke-linecap="round" stroke-linejoin="round" stroke="#191d3a" transform="matrix(1,0,0,1,0,34.19083786010742)" opacity="1" style="transform:matrix(1, 0, 0, 1, 0, 34.1908);animation-play-state:paused" ></path>
<path d="M1021.4399999999999 -55.48348592851835L1021.4399999999999 0Z" stroke-width="15.36" stroke-linecap="round" stroke-linejoin="round" stroke="#b3b7e2" transform="matrix(1,0,0,1,0,391.2416687011719)" opacity="1" style="transform:matrix(1, 0, 0, 1, 0, 391.242);animation-play-state:paused" ></path>
<path d="M1052.16 -54.99768309460842L1052.16 0Z" stroke-width="15.36" stroke-linecap="round" stroke-linejoin="round" stroke="#3b4368" transform="matrix(1,0,0,1,0,59.33429718017578)" opacity="1" style="transform:matrix(1, 0, 0, 1, 0, 59.3343);animation-play-state:paused" ></path>
<path d="M1052.16 -81.83134893535544L1052.16 0Z" stroke-width="15.36" stroke-linecap="round" stroke-linejoin="round" stroke="#689cc5" transform="matrix(1,0,0,1,0,361.3677062988281)" opacity="1" style="transform:matrix(1, 0, 0, 1, 0, 361.368);animation-play-state:paused" ></path>
<path d="M1052.16 -23.632070684358496L1052.16 0Z" stroke-width="15.36" stroke-linecap="round" stroke-linejoin="round" stroke="#5e6fa3" transform="matrix(1,0,0,1,0,468.0057067871094)" opacity="0.253684" style="transform:matrix(1, 0, 0, 1, 0, 468.006);opacity:0.253684;animation-play-state:paused" ></path>
<path d="M1082.88 -64.55479803715934L1082.88 0Z" stroke-width="15.36" stroke-linecap="round" stroke-linejoin="round" stroke="#d9dbee" transform="matrix(1,0,0,1,0,160.00762939453125)" opacity="1" style="transform:matrix(1, 0, 0, 1, 0, 160.008);animation-play-state:paused" ></path>
<path d="M1082.88 -7.909033545736747L1082.88 0Z" stroke-width="15.36" stroke-linecap="round" stroke-linejoin="round" stroke="#3b4368" transform="matrix(1,0,0,1,0,260.9815673828125)" opacity="1" style="transform:matrix(1, 0, 0, 1, 0, 260.982);animation-play-state:paused" ></path>
<path d="M1082.88 -29.794126249955298L1082.88 0Z" stroke-width="15.36" stroke-linecap="round" stroke-linejoin="round" stroke="#b3b7e2" transform="matrix(1,0,0,1,0,330.1400146484375)" opacity="1" style="transform:matrix(1, 0, 0, 1, 0, 330.14);animation-play-state:paused" ></path>
<path d="M1113.6000000000001 -92.76232092988994L1113.6000000000001 0Z" stroke-width="15.36" stroke-linecap="round" stroke-linejoin="round" stroke="#191d3a" transform="matrix(1,0,0,1,0,335.94122314453125)" opacity="1" style="transform:matrix(1, 0, 0, 1, 0, 335.941);animation-play-state:paused" ></path>
<path d="M1113.6000000000001 -20.316833202663474L1113.6000000000001 0Z" stroke-width="15.36" stroke-linecap="round" stroke-linejoin="round" stroke="#93dbe9" transform="matrix(1,0,0,1,0,187.50914001464844)" opacity="1" style="transform:matrix(1, 0, 0, 1, 0, 187.509);animation-play-state:paused" ></path>
<path d="M1113.6000000000001 -69.75296928721946L1113.6000000000001 0Z" stroke-width="15.36" stroke-linecap="round" stroke-linejoin="round" stroke="#b3b7e2" transform="matrix(1,0,0,1,0,148.30194091796875)" opacity="1" style="transform:matrix(1, 0, 0, 1, 0, 148.302);animation-play-state:paused" ></path>
<path d="M1144.32 -121.26192578437622L1144.32 0Z" stroke-width="15.36" stroke-linecap="round" stroke-linejoin="round" stroke="#191d3a" transform="matrix(1,0,0,1,0,462.99188232421875)" opacity="0.304532" style="transform:matrix(1, 0, 0, 1, 0, 462.992);opacity:0.304532;animation-play-state:paused" ></path>
<path d="M1144.32 -11.98232099476445L1144.32 0Z" stroke-width="15.36" stroke-linecap="round" stroke-linejoin="round" stroke="#5e6fa3" transform="matrix(1,0,0,1,0,63.188507080078125)" opacity="1" style="transform:matrix(1, 0, 0, 1, 0, 63.1885);animation-play-state:paused" ></path>
<path d="M1144.32 -22.81396799783397L1144.32 0Z" stroke-width="15.36" stroke-linecap="round" stroke-linejoin="round" stroke="#b3b7e2" transform="matrix(1,0,0,1,0,121.77410125732422)" opacity="1" style="transform:matrix(1, 0, 0, 1, 0, 121.774);animation-play-state:paused" ></path>
<path d="M1175.04 -37.24058784150657L1175.04 0Z" stroke-width="15.36" stroke-linecap="round" stroke-linejoin="round" stroke="#5e6fa3" transform="matrix(1,0,0,1,0,346.1694641113281)" opacity="1" style="transform:matrix(1, 0, 0, 1, 0, 346.169);animation-play-state:paused" ></path>
<path d="M1175.04 -36.074785244209124L1175.04 0Z" stroke-width="15.36" stroke-linecap="round" stroke-linejoin="round" stroke="#191d3a" transform="matrix(1,0,0,1,0,348.1562194824219)" opacity="1" style="transform:matrix(1, 0, 0, 1, 0, 348.156);animation-play-state:paused" ></path>
<path d="M1175.04 -55.80278905614068L1175.04 0Z" stroke-width="15.36" stroke-linecap="round" stroke-linejoin="round" stroke="#5e6fa3" transform="matrix(1,0,0,1,0,40.944786071777344)" opacity="1" style="transform:matrix(1, 0, 0, 1, 0, 40.9448);animation-play-state:paused" ></path>
<path d="M1205.76 -9.425647018404561L1205.76 0Z" stroke-width="15.36" stroke-linecap="round" stroke-linejoin="round" stroke="#5e6fa3" transform="matrix(1,0,0,1,0,60.769134521484375)" opacity="1" style="transform:matrix(1, 0, 0, 1, 0, 60.7691);animation-play-state:paused" ></path>
<path d="M1205.76 -27.62098065788814L1205.76 0Z" stroke-width="15.36" stroke-linecap="round" stroke-linejoin="round" stroke="#93dbe9" transform="matrix(1,0,0,1,0,225.52122497558594)" opacity="1" style="transform:matrix(1, 0, 0, 1, 0, 225.521);animation-play-state:paused" ></path>
<path d="M1205.76 -16.1651193728394L1205.76 0Z" stroke-width="15.36" stroke-linecap="round" stroke-linejoin="round" stroke="#d9dbee" transform="matrix(1,0,0,1,0,97.38338470458984)" opacity="1" style="transform:matrix(1, 0, 0, 1, 0, 97.3834);animation-play-state:paused" ></path>
<path d="M1236.48 -23.586889427175493L1236.48 0Z" stroke-width="15.36" stroke-linecap="round" stroke-linejoin="round" stroke="#93dbe9" transform="matrix(1,0,0,1,0,59.13548278808594)" opacity="1" style="transform:matrix(1, 0, 0, 1, 0, 59.1355);animation-play-state:paused" ></path>
<path d="M1236.48 -126.50566906660447L1236.48 0Z" stroke-width="15.36" stroke-linecap="round" stroke-linejoin="round" stroke="#b3b7e2" transform="matrix(1,0,0,1,0,333.7938232421875)" opacity="1" style="transform:matrix(1, 0, 0, 1, 0, 333.794);animation-play-state:paused" ></path>
<path d="M1236.48 -12.753333635808758L1236.48 0Z" stroke-width="15.36" stroke-linecap="round" stroke-linejoin="round" stroke="#93dbe9" transform="matrix(1,0,0,1,0,131.947021484375)" opacity="1" style="transform:matrix(1, 0, 0, 1, 0, 131.947);animation-play-state:paused" ></path>
<path d="M1267.2 -23.855939767201562L1267.2 0Z" stroke-width="15.36" stroke-linecap="round" stroke-linejoin="round" stroke="#93dbe9" transform="matrix(1,0,0,1,0,53.51955032348633)" opacity="1" style="transform:matrix(1, 0, 0, 1, 0, 53.5196);animation-play-state:paused" ></path>
<path d="M1267.2 -31.07995158947415L1267.2 0Z" stroke-width="15.36" stroke-linecap="round" stroke-linejoin="round" stroke="#93dbe9" transform="matrix(1,0,0,1,0,242.8334503173828)" opacity="1" style="transform:matrix(1, 0, 0, 1, 0, 242.833);animation-play-state:paused" ></path>
<path d="M1267.2 -25.851396092076357L1267.2 0Z" stroke-width="15.36" stroke-linecap="round" stroke-linejoin="round" stroke="#5e6fa3" transform="matrix(1,0,0,1,0,278.2384338378906)" opacity="1" style="transform:matrix(1, 0, 0, 1, 0, 278.238);animation-play-state:paused" ></path>
<path d="M1297.92 -8.991866910238969L1297.92 0Z" stroke-width="15.36" stroke-linecap="round" stroke-linejoin="round" stroke="#b3b7e2" transform="matrix(1,0,0,1,0,489.2786560058594)" opacity="0.0379431" style="transform:matrix(1, 0, 0, 1, 0, 489.279);opacity:0.0379431;animation-play-state:paused" ></path>
<path d="M1297.92 -52.46574744208283L1297.92 0Z" stroke-width="15.36" stroke-linecap="round" stroke-linejoin="round" stroke="#5e6fa3" transform="matrix(1,0,0,1,0,139.55245971679688)" opacity="1" style="transform:matrix(1, 0, 0, 1, 0, 139.552);animation-play-state:paused" ></path>
<path d="M1297.92 -56.741545011148446L1297.92 0Z" stroke-width="15.36" stroke-linecap="round" stroke-linejoin="round" stroke="#191d3a" transform="matrix(1,0,0,1,0,146.58233642578125)" opacity="1" style="transform:matrix(1, 0, 0, 1, 0, 146.582);animation-play-state:paused" ></path>
<path d="M1328.64 -17.76339187159101L1328.64 0Z" stroke-width="15.36" stroke-linecap="round" stroke-linejoin="round" stroke="#191d3a" transform="matrix(1,0,0,1,0,474.6800537109375)" opacity="0.185996" style="transform:matrix(1, 0, 0, 1, 0, 474.68);opacity:0.185996;animation-play-state:paused" ></path>
<path d="M1328.64 -65.60595250187544L1328.64 0Z" stroke-width="15.36" stroke-linecap="round" stroke-linejoin="round" stroke="#3b4368" transform="matrix(1,0,0,1,0,114.94627380371094)" opacity="1" style="transform:matrix(1, 0, 0, 1, 0, 114.946);animation-play-state:paused" ></path>
<path d="M1328.64 -40.45414623987381L1328.64 0Z" stroke-width="15.36" stroke-linecap="round" stroke-linejoin="round" stroke="#3b4368" transform="matrix(1,0,0,1,0,203.74447631835938)" opacity="1" style="transform:matrix(1, 0, 0, 1, 0, 203.744);animation-play-state:paused" ></path>
<path d="M1359.36 -60.28133526874808L1359.36 0Z" stroke-width="15.36" stroke-linecap="round" stroke-linejoin="round" stroke="#b3b7e2" transform="matrix(1,0,0,1,0,84.10301971435547)" opacity="1" style="transform:matrix(1, 0, 0, 1, 0, 84.103);animation-play-state:paused" ></path>
<path d="M1359.36 -60.13004124074723L1359.36 0Z" stroke-width="15.36" stroke-linecap="round" stroke-linejoin="round" stroke="#689cc5" transform="matrix(1,0,0,1,0,231.1334686279297)" opacity="1" style="transform:matrix(1, 0, 0, 1, 0, 231.133);animation-play-state:paused" ></path>
<path d="M1359.36 -1.9756166173501697L1359.36 0Z" stroke-width="15.36" stroke-linecap="round" stroke-linejoin="round" stroke="#b3b7e2" transform="matrix(1,0,0,1,0,300.6418151855469)" opacity="1" style="transform:matrix(1, 0, 0, 1, 0, 300.642);animation-play-state:paused" ></path>
<path d="M1390.08 -42.323109093732455L1390.08 0Z" stroke-width="15.36" stroke-linecap="round" stroke-linejoin="round" stroke="#d9dbee" transform="matrix(1,0,0,1,0,421.3708190917969)" opacity="0.726635" style="transform:matrix(1, 0, 0, 1, 0, 421.371);opacity:0.726635;animation-play-state:paused" ></path>
<path d="M1390.08 -79.34649009454233L1390.08 0Z" stroke-width="15.36" stroke-linecap="round" stroke-linejoin="round" stroke="#191d3a" transform="matrix(1,0,0,1,0,403.91741943359375)" opacity="0.90364" style="transform:matrix(1, 0, 0, 1, 0, 403.917);opacity:0.90364;animation-play-state:paused" ></path>
<path d="M1390.08 -3.921206531570533L1390.08 0Z" stroke-width="15.36" stroke-linecap="round" stroke-linejoin="round" stroke="#d9dbee" transform="matrix(1,0,0,1,0,228.47215270996094)" opacity="1" style="transform:matrix(1, 0, 0, 1, 0, 228.472);animation-play-state:paused" ></path>
<path d="M1420.8 -30.900037032930413L1420.8 0Z" stroke-width="15.36" stroke-linecap="round" stroke-linejoin="round" stroke="#b3b7e2" transform="matrix(1,0,0,1,0,445.80242919921875)" opacity="0.47886" style="transform:matrix(1, 0, 0, 1, 0, 445.802);opacity:0.47886;animation-play-state:paused" ></path>
<path d="M1420.8 -66.23058200471132L1420.8 0Z" stroke-width="15.36" stroke-linecap="round" stroke-linejoin="round" stroke="#689cc5" transform="matrix(1,0,0,1,0,42.721435546875)" opacity="1" style="transform:matrix(1, 0, 0, 1, 0, 42.7214);animation-play-state:paused" ></path>
<path d="M1420.8 -53.53285772010349L1420.8 0Z" stroke-width="15.36" stroke-linecap="round" stroke-linejoin="round" stroke="#b3b7e2" transform="matrix(1,0,0,1,0,150.6339111328125)" opacity="1" style="transform:matrix(1, 0, 0, 1, 0, 150.634);animation-play-state:paused" ></path>
<path d="M1451.52 -45.192827970669896L1451.52 0Z" stroke-width="15.36" stroke-linecap="round" stroke-linejoin="round" stroke="#5e6fa3" transform="matrix(1,0,0,1,0,98.60279083251953)" opacity="1" style="transform:matrix(1, 0, 0, 1, 0, 98.6028);animation-play-state:paused" ></path>
<path d="M1451.52 -79.87346463472204L1451.52 0Z" stroke-width="15.36" stroke-linecap="round" stroke-linejoin="round" stroke="#3b4368" transform="matrix(1,0,0,1,0,169.9296112060547)" opacity="1" style="transform:matrix(1, 0, 0, 1, 0, 169.93);animation-play-state:paused" ></path>
<path d="M1451.52 -29.830306841082347L1451.52 0Z" stroke-width="15.36" stroke-linecap="round" stroke-linejoin="round" stroke="#689cc5" transform="matrix(1,0,0,1,0,240.67202758789062)" opacity="1" style="transform:matrix(1, 0, 0, 1, 0, 240.672);animation-play-state:paused" ></path>
<path d="M1482.24 -43.70147936630906L1482.24 0Z" stroke-width="15.36" stroke-linecap="round" stroke-linejoin="round" stroke="#689cc5" transform="matrix(1,0,0,1,0,372.2312927246094)" opacity="1" style="transform:matrix(1, 0, 0, 1, 0, 372.231);animation-play-state:paused" ></path>
<path d="M1482.24 -82.61204916469023L1482.24 0Z" stroke-width="15.36" stroke-linecap="round" stroke-linejoin="round" stroke="#689cc5" transform="matrix(1,0,0,1,0,54.76380920410156)" opacity="1" style="transform:matrix(1, 0, 0, 1, 0, 54.7638);animation-play-state:paused" ></path>
<path d="M1482.24 -6.216666681797506L1482.24 0Z" stroke-width="15.36" stroke-linecap="round" stroke-linejoin="round" stroke="#689cc5" transform="matrix(1,0,0,1,0,27.8458194732666)" opacity="1" style="transform:matrix(1, 0, 0, 1, 0, 27.8458);animation-play-state:paused" ></path>
<path d="M1512.96 -121.10515479068272L1512.96 0Z" stroke-width="15.36" stroke-linecap="round" stroke-linejoin="round" stroke="#93dbe9" transform="matrix(1,0,0,1,0,144.0731964111328)" opacity="1" style="transform:matrix(1, 0, 0, 1, 0, 144.073);animation-play-state:paused" ></path>
<path d="M1512.96 -13.486099167326756L1512.96 0Z" stroke-width="15.36" stroke-linecap="round" stroke-linejoin="round" stroke="#b3b7e2" transform="matrix(1,0,0,1,0,363.2073059082031)" opacity="1" style="transform:matrix(1, 0, 0, 1, 0, 363.207);animation-play-state:paused" ></path>
<path d="M1512.96 -35.53038975911477L1512.96 0Z" stroke-width="15.36" stroke-linecap="round" stroke-linejoin="round" stroke="#191d3a" transform="matrix(1,0,0,1,0,149.4051971435547)" opacity="1" style="transform:matrix(1, 0, 0, 1, 0, 149.405);animation-play-state:paused" ></path></g></svg>